<svg width="52" height="52" viewBox="0 0 52 52" fill="none" xmlns="http://www.w3.org/2000/svg">
<rect width="52" height="52" rx="4" fill="#DC0506"/>
<path d="M26 27.8667L19.2333 34.6333C18.9667 34.9 18.6556 35.0333 18.3 35.0333C17.9445 35.0333 17.6333 34.9 17.3667 34.6333C17.1 34.3667 16.9667 34.0556 16.9667 33.7C16.9667 33.3445 17.1 33.0333 17.3667 32.7667L24.1333 26L17.3667 19.2333C17.1 18.9667 16.9667 18.6556 16.9667 18.3C16.9667 17.9445 17.1 17.6333 17.3667 17.3667C17.6333 17.1 17.9445 16.9667 18.3 16.9667C18.6556 16.9667 18.9667 17.1 19.2333 17.3667L26 24.1333L32.7667 17.3667C33.0333 17.1 33.3445 16.9667 33.7 16.9667C34.0556 16.9667 34.3667 17.1 34.6333 17.3667C34.9 17.6333 35.0333 17.9445 35.0333 18.3C35.0333 18.6556 34.9 18.9667 34.6333 19.2333L27.8667 26L34.6333 32.7667C34.9 33.0333 35.0333 33.3445 35.0333 33.7C35.0333 34.0556 34.9 34.3667 34.6333 34.6333C34.3667 34.9 34.0556 35.0333 33.7 35.0333C33.3445 35.0333 33.0333 34.9 32.7667 34.6333L26 27.8667Z" fill="white"/>
</svg>
